<?xml version="1.0" encoding="utf-8"?>
<svg xmlns="http://www.w3.org/2000/svg" viewBox="-335.71 -126.79 889.9139 889.913" width="889.9139px" height="889.913px" xmlns:bx="https://boxy-svg.com"><defs><filter id="inner-shadow-filter-0" color-interpolation-filters="sRGB" x="-50%" y="-50%" width="200%" height="200%"><feOffset dx="-16" dy="-15"/><feGaussianBlur stdDeviation="6"/><feComposite operator="out" in="SourceGraphic"/><feComponentTransfer result="choke"><feFuncA type="linear" slope="0.5"/></feComponentTransfer><feFlood flood-color="#fff" result="color"/><feComposite operator="in" in="color" in2="choke" result="shadow"/><feComposite operator="over" in="shadow" in2="SourceGraphic"/></filter><filter id="point-light-filter-0" primitiveUnits="objectBoundingBox" color-interpolation-filters="sRGB" x="-50%" y="-50%" width="200%" height="200%"><feSpecularLighting result="specular-lighting" lighting-color="#ffffff" specularConstant="1.47" specularExponent="8"><fePointLight x="0.5" y="0.5" z="0.5"/></feSpecularLighting><feDiffuseLighting result="diffuse-lighting" lighting-color="#ffffff" diffuseConstant="0.95"><fePointLight x="0.5" y="0.5" z="0.5"/></feDiffuseLighting><feMerge result="lighting"><feMergeNode in="diffuse-lighting"/><feMergeNode in="specular-lighting"/></feMerge><feComposite in="SourceGraphic" in2="lighting" operator="arithmetic" k1="1" k2="0" k3="0" k4="0"/></filter></defs><g id="Layer_1" style="filter: url(&quot;#inner-shadow-filter-0&quot;) url(&quot;#point-light-filter-0&quot;);"><polygon class="cls-1" points="99.054 169.843 554.204 169.843 554.204 -126.79 293.984 -126.79 99.054 169.843" style="fill: rgb(87, 155, 236); stroke-linecap: round; stroke-miterlimit: 30; stroke-width: 18px; stroke-dashoffset: -100px; paint-order: fill;"/><polygon class="cls-2" points="-290.83 763.123 246.134 763.123 -22.346 354.583 -290.83 763.123" style="fill: rgb(59, 107, 232); stroke-linecap: round; stroke-miterlimit: 30; stroke-width: 18px; stroke-dashoffset: -100px; paint-order: fill;"/><polygon class="cls-2" points="246.114 -126.79 -335.71 -126.79 -335.71 758.593 246.114 -126.79" style="fill: rgb(59, 107, 232); stroke-linecap: round; stroke-miterlimit: 30; stroke-width: 18px; stroke-dashoffset: -100px; paint-order: fill;"/><polygon class="cls-1" points="99.064 466.503 293.994 763.123 554.204 763.123 554.204 466.503 99.064 466.503" style="fill: rgb(87, 155, 236); stroke-linecap: round; stroke-miterlimit: 30; stroke-width: 18px; stroke-dashoffset: -100px; paint-order: fill;"/><polygon class="cls-1" points="332.124 426.503 403.324 318.163 332.144 209.843 284.614 209.843 226.584 209.843 86.444 209.843 72.764 209.843 1.584 318.163 72.784 426.503 86.444 426.503 226.584 426.503 284.614 426.503 332.124 426.503" style="fill: rgb(87, 155, 236); stroke-linecap: round; stroke-miterlimit: 30; stroke-width: 18px; stroke-dashoffset: -100px; paint-order: fill;"/></g></svg>